<svg xmlns="http://www.w3.org/2000/svg" width="264" height="85" fill="none" viewBox="0 0 264 85">
    <path fill="#fff" d="M22.429 52.772c1.056.24 2.028.612 2.916 1.116.888.48 1.656 1.08 2.304 1.8.648.72 1.152 1.548 1.512 2.484.36.936.54 1.98.54 3.132 0 1.416-.276 2.676-.828 3.78-.552 1.104-1.296 2.04-2.232 2.808-.936.744-2.04 1.32-3.312 1.728-1.248.384-2.592.576-4.032.576s-2.796-.192-4.068-.576c-1.248-.408-2.34-.984-3.276-1.728-.936-.768-1.68-1.704-2.232-2.808-.552-1.104-.828-2.364-.828-3.78 0-1.152.18-2.196.54-3.132.36-.936.864-1.764 1.512-2.484s1.416-1.32 2.304-1.8c.888-.504 1.86-.876 2.916-1.116v-3.456h6.264v3.456zM16.38 76.676H3.96v-4.788h30.78v4.788H22.32v7.056h-5.94v-7.056zm7.344-15.372c0-1.296-.408-2.292-1.224-2.988-.792-.696-1.86-1.044-3.204-1.044s-2.424.348-3.24 1.044c-.792.696-1.188 1.692-1.188 2.988s.396 2.292 1.188 2.988c.816.696 1.896 1.044 3.24 1.044 1.344 0 2.412-.348 3.204-1.044.816-.696 1.224-1.692 1.224-2.988zM49.876 75.164h-12.42V70.34h30.78v4.824h-12.42v8.568h-5.94v-8.568zm5.832-18.72v.432c0 .648.264 1.32.792 2.016.528.672 1.248 1.32 2.16 1.944.912.6 1.98 1.152 3.204 1.656 1.224.504 2.532.912 3.924 1.224l-2.16 4.464c-1.2-.12-2.376-.384-3.528-.792-1.152-.408-2.22-.876-3.204-1.404-.96-.552-1.8-1.128-2.52-1.728-.696-.624-1.2-1.212-1.512-1.764-.576.864-1.248 1.632-2.016 2.304-.768.672-1.68 1.224-2.736 1.656-1.296.528-2.652.864-4.068 1.008-1.416.144-2.844.228-4.284.252v-5.256c1.032-.048 2.052-.12 3.06-.216 1.032-.12 2.052-.384 3.06-.792.432-.168.876-.396 1.332-.684.456-.312.864-.66 1.224-1.044.36-.408.66-.84.9-1.296.24-.48.36-.996.36-1.548v-.432h-8.568V51.62h23.004v4.824h-8.424zM95.9 82.4h-5.436V66.02h-1.62c-.432 2.04-1.428 3.648-2.988 4.824-1.536 1.152-3.48 1.728-5.832 1.728-1.368 0-2.616-.204-3.744-.612-1.104-.432-2.052-1.032-2.844-1.8-.792-.792-1.404-1.728-1.836-2.808-.432-1.08-.648-2.28-.648-3.6 0-2.136.54-3.936 1.62-5.4 1.08-1.464 2.568-2.472 4.464-3.024v-3.996h5.976v3.996c1.464.408 2.676 1.104 3.636 2.088.984.96 1.68 2.16 2.088 3.6h1.728v-9.72H95.9V82.4zm1.656-31.104h5.544v31.716h-5.544V51.296zm-13.86 12.456c0-1.176-.312-2.16-.936-2.952-.624-.816-1.536-1.224-2.736-1.224-1.2 0-2.112.408-2.736 1.224-.624.792-.936 1.776-.936 2.952s.312 2.172.936 2.988c.624.792 1.536 1.188 2.736 1.188 1.2 0 2.112-.396 2.736-1.188.624-.816.936-1.812.936-2.988zM111.397 52.232h8.496v6.732c0 .984.048 1.956.144 2.916.096.96.384 1.944.864 2.952.504.984 1.26 1.98 2.268 2.988 1.008 1.008 2.412 2.028 4.212 3.06l-2.88 4.356c-.96-.504-1.824-.984-2.592-1.44-.744-.48-1.428-.984-2.052-1.512-.6-.528-1.152-1.092-1.656-1.692-.48-.6-.948-1.26-1.404-1.98-.528 1.2-1.332 2.292-2.412 3.276-1.056.984-2.28 1.764-3.672 2.34-.696.288-1.512.48-2.448.576-.912.072-1.824.108-2.736.108v-5.4c.888 0 1.716-.096 2.484-.288.768-.192 1.368-.432 1.8-.72.72-.48 1.332-1.068 1.836-1.764s.912-1.452 1.224-2.268c.336-.84.576-1.728.72-2.664.168-.936.252-1.896.252-2.88v-1.692h-2.448v-5.004zm18.18 30.78V64.796h-6.084v-5.004h6.084v-8.496h5.94v31.716h-5.94zM148.043 52.088h19.368V68.18c-1.008.48-2.028.852-3.06 1.116-1.008.264-2.016.456-3.024.576-.984.12-1.944.192-2.88.216-.936.024-1.812.036-2.628.036h-5.328V56.912h-2.448v-4.824zm23.22 22.644V51.296h5.94v8.676h4.392v5.004h-4.392v9.756h-5.94zm-10.404 5.364h17.1v4.824h-23.22V72.428h6.12v7.668zm-3.78-14.724h1.44c.432-.024.816-.048 1.152-.072.336-.048.648-.108.936-.18.288-.072.6-.168.936-.288v-7.92h-5.184v8.46h.72zM204.85 83.012V51.296h5.94v10.872h4.824v5.004h-4.824v15.84h-5.94zm-14.58-30.78V70.52h1.584c1.296 0 2.436-.024 3.42-.072.984-.048 1.848-.12 2.592-.216.768-.096 1.464-.204 2.088-.324.624-.144 1.224-.3 1.8-.468l1.008 4.464c-1.176.456-2.64.816-4.392 1.08-1.752.264-3.792.396-6.12.396h-7.92V52.232h5.94zM235.529 57.236h-10.332v13.68h1.944c1.224 0 2.316-.024 3.276-.072.96-.048 1.836-.12 2.628-.216s1.512-.204 2.16-.324c.648-.144 1.26-.3 1.836-.468l1.008 4.5c-1.008.408-2.436.756-4.284 1.044-1.824.264-3.9.396-6.228.396h-8.28v-18.54h-2.988v-4.824h19.26v4.824zm4.248 25.776V51.296h5.94v10.872h4.824v5.004h-4.824v15.84h-5.94zM4.74 2.232h8.353v9.252c0 .84.12 1.704.36 2.592.264.888.636 1.764 1.116 2.628.48.84 1.08 1.656 1.8 2.448.744.768 1.608 1.44 2.592 2.016l-3.096 4.14c-.768-.408-1.464-.864-2.088-1.368-.6-.504-1.14-1.02-1.62-1.548-.456-.528-.84-1.044-1.152-1.548-.288-.528-.504-1.008-.648-1.44-.408 1.224-1.044 2.256-1.908 3.096-.864.816-1.992 1.512-3.384 2.088-.696.288-1.368.48-2.016.576-.648.072-1.344.108-2.088.108v-5.436c.696 0 1.296-.084 1.8-.252.504-.192.972-.42 1.404-.684 1.08-.648 1.848-1.62 2.304-2.916.48-1.32.72-2.832.72-4.536V7.236H4.74V2.232zM25.154 32.4H19.5V15.624h-4.428V10.62H19.5V1.296h5.652V32.4zM26.7 1.296h5.76v31.716H26.7V1.296zM40.92 1.728h8.46v5.22c0 1.416.623 2.748 1.871 3.996 1.273 1.224 3.037 2.172 5.293 2.844l-2.592 4.428c-1.92-.504-3.468-1.176-4.645-2.016-1.151-.864-2.04-1.752-2.663-2.664-.552 1.08-1.297 2.052-2.233 2.916-.936.84-2.184 1.548-3.744 2.124-.696.264-1.511.444-2.448.54-.912.096-1.824.144-2.736.144v-5.364c.889 0 1.705-.096 2.449-.288.767-.216 1.38-.432 1.835-.648 1.128-.528 2.016-1.296 2.664-2.304.649-1.032.973-2.16.973-3.384v-.54h-2.485V1.728zm17.1 17.1V1.296h5.94v6.948h4.571v5.004H63.96v5.58h-5.94zm5.4 8.748c0 1.224-.253 2.352-.757 3.384-.503 1.032-1.2 1.92-2.087 2.664-.864.744-1.909 1.32-3.133 1.728-1.224.408-2.555.612-3.995.612s-2.773-.204-3.996-.612c-1.224-.408-2.28-.984-3.169-1.728-.864-.744-1.547-1.632-2.052-2.664-.504-1.032-.756-2.16-.756-3.384 0-1.224.252-2.352.756-3.384.505-1.032 1.188-1.92 2.052-2.664.889-.744 1.944-1.32 3.169-1.728 1.224-.408 2.556-.612 3.995-.612 1.44 0 2.772.204 3.996.612 1.224.408 2.269.984 3.133 1.728.888.744 1.584 1.632 2.087 2.664.505 1.032.757 2.16.757 3.384zm-5.977 0c0-1.008-.347-1.86-1.043-2.556-.672-.72-1.657-1.08-2.953-1.08-1.296 0-2.291.36-2.988 1.08-.672.696-1.008 1.548-1.008 2.556s.337 1.86 1.008 2.556c.697.72 1.692 1.08 2.988 1.08s2.28-.36 2.953-1.08c.696-.696 1.044-1.548 1.044-2.556zM84.262 3.6c.984.264 1.884.648 2.7 1.152.816.48 1.512 1.08 2.088 1.8.576.696 1.02 1.5 1.332 2.412.336.888.504 1.848.504 2.88 0 1.296-.252 2.484-.756 3.564-.48 1.056-1.152 1.968-2.016 2.736-.864.744-1.884 1.32-3.06 1.728-1.176.408-2.46.612-3.852.612s-2.676-.204-3.852-.612c-1.176-.408-2.196-.984-3.06-1.728-.864-.768-1.548-1.68-2.052-2.736-.48-1.08-.72-2.268-.72-3.564 0-2.112.6-3.888 1.8-5.328 1.224-1.44 2.832-2.412 4.824-2.916V0h6.12v3.6zm9.936 29.412V1.296h5.94v31.716h-5.94zm-1.368-6.66c-1.32.408-2.796.696-4.428.864-1.632.168-3.18.252-4.644.252H70.006v-4.824h14.148c1.344 0 2.772-.06 4.284-.18 1.512-.144 2.976-.384 4.392-.72v4.608zm-7.848-14.508c0-1.152-.336-2.1-1.008-2.844-.648-.768-1.572-1.152-2.772-1.152-1.2 0-2.136.384-2.808 1.152-.648.744-.972 1.692-.972 2.844s.324 2.112.972 2.88c.672.744 1.608 1.116 2.808 1.116 1.2 0 2.124-.372 2.772-1.116.672-.768 1.008-1.728 1.008-2.88zM114.528 2.34h25.74v15.804c-1.248.624-2.664 1.08-4.248 1.368-1.56.264-3.096.456-4.608.576v3.888h12.42V28.8h-30.78v-4.824h12.42v-3.744h-8.496V7.164h-2.448V2.34zm12.6 13.068c.552 0 1.176-.012 1.872-.036.696-.024 1.38-.06 2.052-.108.696-.072 1.332-.156 1.908-.252.576-.12 1.032-.252 1.368-.396V7.164h-11.412v8.244h4.212zM177.328 17.892v4.68h-30.78v-4.68h30.78zm-3.384 12.276v4.752h-23.4V24.552h5.94v5.616h17.46zm-22.896-14.724V6.12h-2.988V1.476h24.876V6.12h-15.948v4.68h6.372c1.776 0 3.504-.048 5.184-.144 1.68-.12 3.132-.324 4.356-.612l.684 4.428c-.984.312-2.22.552-3.708.72-1.464.168-3.06.252-4.788.252h-14.04zM201.806 23.688h-12.42v-4.824h30.78v4.824h-12.42v10.044h-5.94V23.688zm-8.82-22.068h25.452v4.608h-2.484c-.048 1.656-.204 3.444-.468 5.364-.264 1.896-.624 3.744-1.08 5.544l-5.868-.864c.432-1.944.732-3.756.9-5.436.168-1.68.276-3.12.324-4.32h-16.776V1.62zM241.242 14.868v2.16h12.42v4.68h-30.78v-4.68h12.42v-2.16h-7.92V6.12h-2.988V1.476h24.876V6.12h-15.948v4.104h6.372c1.776 0 3.504-.048 5.184-.144 1.68-.12 3.132-.324 4.356-.612l.684 4.428c-.984.312-2.22.552-3.708.72-1.464.168-3.06.252-4.788.252h-.18zm2.556 13.356h-17.28v-4.752h23.22V35.28h-5.94v-7.056zM255.405 33.516l1.728-10.548h5.904l-4.464 10.548h-3.168z"/>
</svg>
