<svg xmlns="http://www.w3.org/2000/svg" width="253" height="85" fill="none" viewBox="0 0 253 85">
    <path fill="#fff" d="M24.14 23.22v-8.892h-4.428V9.324h4.428V.756h5.94V23.22h-5.94zm-8.64-1.8h6.228v1.728c0 .792.252 1.548.756 2.268.504.72 1.188 1.404 2.052 2.052.864.624 1.872 1.2 3.024 1.728s2.388.984 3.708 1.368l-2.52 4.536c-.96-.216-1.944-.552-2.952-1.008-1.008-.432-1.968-.936-2.88-1.512-.888-.552-1.704-1.14-2.448-1.764-.72-.624-1.272-1.236-1.656-1.836-.696 1.08-1.644 2.052-2.844 2.916-1.2.888-2.484 1.572-3.852 2.052-.696.24-1.512.432-2.448.576-.912.168-1.824.252-2.736.252v-5.328c.888 0 1.704-.108 2.448-.324.744-.192 1.356-.384 1.836-.576 1.368-.552 2.424-1.32 3.168-2.304.744-1.008 1.116-2.052 1.116-3.132V21.42zm5.328-13.104h-6.372v1.332c0 .432.18.948.54 1.548.36.6.864 1.2 1.512 1.8.648.6 1.416 1.176 2.304 1.728.912.528 1.896.972 2.952 1.332l-2.484 4.212c-1.728-.504-3.252-1.188-4.572-2.052-1.32-.888-2.328-1.884-3.024-2.988-.72 1.224-1.536 2.196-2.448 2.916-.888.696-2.028 1.272-3.42 1.728-1.368.432-3 .648-4.896.648v-5.292c.888 0 1.644-.072 2.268-.216.624-.144 1.176-.312 1.656-.504.528-.216.996-.504 1.404-.864.432-.384.804-.792 1.116-1.224.312-.456.552-.924.72-1.404.168-.504.252-.972.252-1.404V8.316h-6.84V3.492h6.84V.108h6.12v3.384h6.372v4.824zM65.97 17.928V.756h5.94v6.012h4.392v5.004H71.91v6.156h-5.94zM61.83 6.012H51.5v6.444h1.584c1.175 0 2.244-.024 3.203-.072.96-.048 1.837-.12 2.628-.216.792-.096 1.524-.204 2.197-.324.672-.144 1.296-.3 1.872-.468l1.008 4.464c-1.008.408-2.437.756-4.285 1.044-1.824.264-3.9.396-6.228.396h-7.92V6.012h-2.987V1.188h19.26v4.824zM72.198 35.1h-22.86v-9.828h16.345v-1.368H49.374v-4.5h22.248v9.828H55.28V30.6h16.92v4.5zM77.633 22.896v-4.68h30.78v4.68h-30.78zm27.864 6.732v4.752h-23.58v-9.864h5.94v5.112h17.64zm-2.52-21.312c0 1.224-.24 2.34-.72 3.348s-1.152 1.884-2.016 2.628c-.864.744-1.908 1.32-3.132 1.728-1.224.408-2.592.612-4.104.612-1.488 0-2.844-.204-4.068-.612-1.224-.408-2.28-.984-3.168-1.728-.864-.744-1.536-1.62-2.016-2.628s-.72-2.124-.72-3.348c0-1.224.24-2.34.72-3.348s1.152-1.884 2.016-2.628c.864-.744 1.908-1.32 3.132-1.728C90.125.204 91.493 0 93.005 0s2.88.204 4.104.612c1.224.408 2.268.984 3.132 1.728.864.744 1.536 1.62 2.016 2.628s.72 2.124.72 3.348zm-5.904 0c0-1.056-.348-1.932-1.044-2.628-.672-.72-1.68-1.08-3.024-1.08s-2.364.36-3.06 1.08c-.672.696-1.008 1.572-1.008 2.628s.336 1.944 1.008 2.664c.696.696 1.716 1.044 3.06 1.044s2.352-.348 3.024-1.044c.696-.72 1.044-1.608 1.044-2.664zM129.94 1.08v4.068h11.844V1.08h5.94v16.452H124V1.08h5.94zm2.952 23.796h-12.42v-4.824h30.78v4.824h-12.42v8.316h-5.94v-8.316zm8.892-12.168V9.9H129.94v2.808h11.844zM182.443 34.74h-22.464V20.808h22.464V34.74zm-5.94-15.552V.756h5.94v6.876h4.392v5.004h-4.392v6.552h-5.94zm-10.584 6.444v4.284h10.584v-4.284h-10.584zm6.444-19.26h-10.332v7.164h1.584c1.176 0 2.244-.024 3.204-.072.96-.048 1.836-.12 2.628-.216s1.524-.204 2.196-.324c.672-.144 1.296-.3 1.872-.468l1.008 4.464c-1.008.408-2.436.756-4.284 1.044-1.824.264-3.9.396-6.228.396h-7.92V6.372h-2.988V1.548h19.26v4.824zM197.274 23.256h3.168v-3.312h5.256V34.74h-13.644V19.944h5.22v3.312zm14.796-4.932v-6.048h-3.708V7.272h3.708V.756h5.94v17.568h-5.94zm-1.44 1.62h5.652v3.348c0 .792.06 1.548.18 2.268.144.696.396 1.368.756 2.016.36.624.864 1.212 1.512 1.764.672.552 1.548 1.068 2.628 1.548l-2.304 4.068c-.696-.12-1.356-.348-1.98-.684-.6-.312-1.14-.696-1.62-1.152-.456-.432-.84-.9-1.152-1.404-.288-.48-.48-.936-.576-1.368-.192.504-.456 1.008-.792 1.512-.336.528-.792 1.008-1.368 1.44-.552.432-1.248.78-2.088 1.044-.816.288-1.8.432-2.952.432V29.88c.864-.024 1.56-.24 2.088-.648.552-.408.972-.924 1.26-1.548.288-.648.48-1.356.576-2.124.12-.768.18-1.536.18-2.304v-3.312zm-10.188 7.524h-3.168v2.7h3.168v-2.7zm7.02-18.108c0 1.344-.228 2.556-.684 3.636-.456 1.08-1.104 2.004-1.944 2.772-.816.744-1.8 1.332-2.952 1.764-1.152.408-2.412.612-3.78.612-1.368 0-2.628-.204-3.78-.612-1.152-.432-2.148-1.02-2.988-1.764-.816-.768-1.452-1.692-1.908-2.772-.456-1.08-.684-2.292-.684-3.636 0-1.32.228-2.52.684-3.6.456-1.104 1.092-2.028 1.908-2.772.84-.768 1.836-1.356 2.988-1.764 1.152-.432 2.412-.648 3.78-.648 1.368 0 2.628.216 3.78.648 1.152.408 2.136.996 2.952 1.764.84.744 1.488 1.668 1.944 2.772.456 1.08.684 2.28.684 3.6zm-5.616 0c0-1.368-.348-2.364-1.044-2.988-.696-.648-1.596-.972-2.7-.972s-2.004.324-2.7.972c-.696.624-1.044 1.62-1.044 2.988 0 1.368.348 2.376 1.044 3.024.696.624 1.596.936 2.7.936s2.004-.312 2.7-.936c.696-.648 1.044-1.656 1.044-3.024zM235.305 4.608c1.032.264 1.98.672 2.844 1.224.888.552 1.644 1.224 2.268 2.016.624.792 1.104 1.704 1.44 2.736.36 1.008.54 2.1.54 3.276 0 1.464-.264 2.796-.792 3.996-.504 1.176-1.212 2.184-2.124 3.024-.912.84-1.992 1.488-3.24 1.944-1.224.456-2.556.684-3.996.684s-2.784-.228-4.032-.684c-1.224-.456-2.292-1.104-3.204-1.944-.912-.84-1.632-1.848-2.16-3.024-.504-1.2-.756-2.532-.756-3.996 0-1.176.168-2.268.504-3.276.36-1.032.852-1.944 1.476-2.736.624-.792 1.368-1.464 2.232-2.016.864-.552 1.824-.96 2.88-1.224V.54h6.12v4.068zm10.836 27.864V.756h5.94v31.716h-5.94zm-9.576-18.612c0-1.392-.384-2.52-1.152-3.384-.744-.888-1.8-1.332-3.168-1.332s-2.436.444-3.204 1.332c-.744.864-1.116 1.992-1.116 3.384s.372 2.532 1.116 3.42c.768.864 1.836 1.296 3.204 1.296s2.424-.432 3.168-1.296c.768-.888 1.152-2.028 1.152-3.42zM34.435 73.148h-12.42v-4.824h30.78v4.824h-12.42v10.044h-5.94V73.148zm-8.82-22.068h25.452v4.608h-2.484c-.048 1.656-.204 3.444-.468 5.364-.264 1.896-.624 3.744-1.08 5.544l-5.868-.864c.432-1.944.732-3.756.9-5.436.168-1.68.276-3.12.324-4.32H25.615V51.08zM73.87 64.328v2.16h12.42v4.68H55.51v-4.68h12.42v-2.16h-7.92V55.58h-2.987v-4.644h24.876v4.644H65.95v4.104h6.372c1.776 0 3.504-.048 5.184-.144 1.68-.12 3.132-.324 4.356-.612l.684 4.428c-.984.312-2.22.552-3.708.72-1.464.168-3.06.252-4.788.252h-.18zm2.557 13.356h-17.28v-4.752h23.22V84.74h-5.94v-7.056zM107.69 81.86V50.756h5.652v13.032h1.872V50.756h5.724v31.716h-5.724v-13.68h-1.872V81.86h-5.652zm-1.368-13.464c0 1.248-.228 2.364-.684 3.348-.432.96-1.032 1.776-1.8 2.448-.744.672-1.644 1.188-2.7 1.548-1.032.336-2.136.504-3.312.504-1.2 0-2.316-.168-3.348-.504-1.032-.36-1.932-.876-2.7-1.548-.744-.672-1.344-1.488-1.8-2.448-.432-.984-.648-2.1-.648-3.348 0-1.248.216-2.352.648-3.312.456-.984 1.056-1.812 1.8-2.484.768-.672 1.668-1.188 2.7-1.548 1.032-.36 2.148-.54 3.348-.54 1.176 0 2.28.18 3.312.54 1.056.36 1.956.876 2.7 1.548.768.672 1.368 1.5 1.8 2.484.456.96.684 2.064.684 3.312zm-.036-8.784H88.754v-4.788h5.832v-4.752h6.12v4.752h5.58v4.788zm-5.4 8.784c0-1.008-.288-1.812-.864-2.412-.576-.6-1.308-.9-2.196-.9-.888 0-1.62.3-2.196.9-.576.6-.864 1.404-.864 2.412s.288 1.812.864 2.412c.576.576 1.308.864 2.196.864.96 0 1.704-.288 2.232-.864.552-.6.828-1.404.828-2.412zM142.331 51.8v4.968h11.916V51.8h5.94v18.18h-8.928v3.456h12.42v4.824h-30.78v-4.824h12.42V69.98h-8.928V51.8h5.94zm11.916 13.356v-3.564h-11.916v3.564h11.916zM169.671 51.692h8.352v9.252c0 .84.12 1.704.36 2.592.264.888.636 1.764 1.116 2.628.48.84 1.08 1.656 1.8 2.448.744.768 1.608 1.44 2.592 2.016l-3.096 4.14c-.768-.408-1.464-.864-2.088-1.368-.6-.504-1.14-1.02-1.62-1.548-.456-.528-.84-1.044-1.152-1.548-.288-.528-.504-1.008-.648-1.44-.408 1.224-1.044 2.256-1.908 3.096-.864.816-1.992 1.512-3.384 2.088-.696.288-1.368.48-2.016.576-.648.072-1.344.108-2.088.108v-5.436c.696 0 1.296-.084 1.8-.252.504-.192.972-.42 1.404-.684 1.08-.648 1.848-1.62 2.304-2.916.48-1.32.72-2.832.72-4.536v-4.212h-2.448v-5.004zm20.412 30.168h-5.652V65.084h-4.428V60.08h4.428v-9.324h5.652V81.86zm1.548-31.104h5.76v31.716h-5.76V50.756zM207.613 74.336v-6.12c-.768-.816-1.368-1.74-1.8-2.772-.432-1.032-.648-2.196-.648-3.492 0-1.176.193-2.268.577-3.276.384-1.008.912-1.896 1.584-2.664.696-.792 1.511-1.452 2.447-1.98.936-.552 1.945-.96 3.025-1.224v-3.42h6.263v3.42c1.08.264 2.076.672 2.988 1.224.937.528 1.741 1.188 2.413 1.98.696.768 1.236 1.656 1.62 2.664.408 1.008.612 2.1.612 3.276 0 1.248-.216 2.388-.648 3.42-.408 1.008-.972 1.908-1.692 2.7v6.264h7.02v4.824h-30.781v-4.824h7.02zm13.104-12.384c0-1.392-.444-2.496-1.332-3.312-.888-.84-2.039-1.26-3.455-1.26s-2.569.42-3.457 1.26c-.888.816-1.332 1.92-1.332 3.312s.444 2.508 1.332 3.348c.888.816 2.041 1.224 3.457 1.224s2.567-.408 3.455-1.224c.888-.84 1.332-1.956 1.332-3.348zm-2.231 12.384v-3.06c-.84.144-1.692.216-2.556.216-.84 0-1.657-.072-2.449-.216v3.06h5.005z"/>
</svg>
